<?xml version="1.0" standalone="no"?>
<!DOCTYPE svg PUBLIC "-//W3C//DTD SVG 1.1//EN" "http://www.w3.org/Graphics/SVG/1.1/DTD/svg11.dtd" >
<svg xmlns="http://www.w3.org/2000/svg">
<metadata>Generated by IcoMoon</metadata>
<defs>
<font id="ftc" horiz-adv-x="1024">
<font-face units-per-em="1024" ascent="960" descent="-64" />
<missing-glyph horiz-adv-x="1024" />
<glyph unicode="&#x20;" horiz-adv-x="512" d="" />
<glyph unicode="&#xe900;" glyph-name="apple" d="M817.426 584.472c-149.756 106.406-273.9-35.468-303.454-35.468-0.556 0-3.386 0-3.942 0-29.554 0-153.60A04FB7ABA" />
<glyph unicode="&#xe901;" glyph-name="apple-heart" d="M943.488 774.524c-40.798 53.608-104.986 84.404-196.338 94.204-7.402 0.754-15.208 1.208-23.234 1.208-075504BAA7" />
<glyph unicode="&#xe902;" glyph-name="brain-love" d="M922.616 624.496c-16.108 78.972-5.834 244.454-279.412 288.078-273.518 43.684-519.976-95.128-458.044-0371F6FA56" />
<glyph unicode="&#xe903;" glyph-name="ball" d="M551.804 857.866c11.058 14.656 9.278 45.742 7.704 73.164-0.062 1.182-0.126 2.338-0.192 3.512-15.5 1.09D3AD2A59" />
<glyph unicode="&#xe904;" glyph-name="band" d="M684.254 871.84l-596.094-596.092c-69.468-69.47-69.468-182.112 0.004-251.586s182.11-69.47 251.586 0l502BAC32A29" />
<glyph unicode="&#xe905;" glyph-name="bicycle" d="M337.198 339.198c-15.364 0-27.82-12.456-27.82-27.824s12.456-27.824 27.82-27.824c15.37 0 27.828 12.4509F76F3A62" />
<glyph unicode="&#xe906;" glyph-name="bike" d="M816.262 516.558c-19.628 0-39.282-3.394-58.416-10.088l-3.992-1.396-64.296 116.812v50.73h77.034c14.80036DA64AC4" />
<glyph unicode="&#xe907;" glyph-name="apple-alarm" d="M823.602 619.27l43.282 45.662c11.406 12.034 10.898 31.034-1.128 42.436l-36.312 34.418c-12.032 11.4080E70506AB7" />
<glyph unicode="&#xe908;" glyph-name="burger" d="M930.39 196.282h-836.78c-5.894 0-10.676-4.78-10.676-10.676v-63.070c0-36.802 29.946-66.744 66.746-66.0D22873A00" />
<glyph unicode="&#xe909;" glyph-name="calendar" d="M264.058 702.76h13.876c21.088 0 38.182 17.1 38.182 38.182v144.778c0 21.082-17.094 38.18-38.182 38.18h-13.876c-21.086 0-38.18-17.098-38.18-38.18v-144.778c0-21.082 17.094-38.182 38.18-38.182zM753.794 703.706h13.876c21.086 0 38.18 17.098 38.18 38.182v144.78c0 21.080-17.094 38.178-38.18 38.178h-13.876c-21.088 0-38.182-17.098-38.182-38.178v-144.778c0.002-21.086 17.096-38.184 38.182-38.184zM934.88 846.308h-97.992v-114.418c0-38.168-31.050-59.22-69.216-59.22h-13.876c-38.168 0-69.218 31.052-69.218 69.22v104.418h-337.424v-105.364c0-38.168-31.050-69.22-69.218-69.22h-13.876c-38.166 0-69.216 31.052-69.216 69.22v105.364h-105.724c-34.226 0-62.072-27.846-62.072-62.074v-750.060c0-34.228 27.846-62.074 62.072-62.074h845.76c34.226 0 62.072 27.846 62.072 62.074v750.060c0.002 34.226-27.844 62.074-62.072 62.074zM934.88 34.174h-845.758l-0.002 566.426h845.77l0.032-566.424c-0.002 0-0.016-0.002-0.042-0.002zM544.044 410.604h111.452c4.418 0 8 3.582 8 8v96.51c0 4.418-3.582 8-8 8h-111.452c-4.418 0-8-3.582-8-8v-96.51c0-4.418 3.582-8 8-8zM725.934 410.604h111.452c4.418 0 8 3.582 8 8v96.51c0 4.418-3.582 8-8 8h-111.452c-4.418 0-8-3.582-8-8v-96.51c0-4.418 3.582-8 8-8zM180.27 252.604h111.452c4.418 0 8 3.582 8 8v96.51c0 4.418-3.582 8-8 8h-111.452c-4.418 0-8-3.582-8-8v-96.51c0-4.418 3.582-8 8-8zM362.158 252.604h111.452c4.418 0 8 3.582 8 8v96.51c0 4.418-3.582 8-8 8h-111.452c-4.418 0-8-3.582-8-8v-96.51c0-4.418 3.582-8 8-8zM544.046 252.604h111.452c4.418 0 8 3.582 8 8v96.51c0 4.418-3.582 8-8 8h-111.452c-4.418 0-8-3.582-8-8v-96.51c0-4.418 3.582-8 8-8zM725.936 252.604h111.452c4.418 0 8 3.582 8 8v96.51c0 4.418-3.582 8-8 8h-111.452c-4.418 0-8-3.582-8-8v-96.51c0-4.418 3.582-8 8-8zM291.722 207.114h-111.45c-4.418 0-8-3.582-8-8v-96.51c0-4.418 3.582-8 8-8h111.452c4.418 0 8 3.582 8 8v96.51c-0.002 4.418-3.584 8-8.002 8zM473.612 207.114h-111.452c-4.418 0-8-3.582-8-8v-96.51c0-4.418 3.582-8 8-8h111.452c4.418 0 8 3.582 8 8v96.51c0 4.418-3.582 8-8 8zM655.5 207.114h-111.452c-4.418 0-8-3.582-8-8v-96.51c0-4.418 3.582-8 8-8h111.452c4.418 0 8 3.582 8 8v96.51c0 4.418-3.582 8-8 8zM837.388 207.114h-111.452c-4.418 0-8-3.582-8-8v-96.51c0-4.418 3.582-8 8-8h111.452c4.418 0 8 3.582 8 8v96.51c0 4.418-3.582 8-8 8z" />
<glyph unicode="&#xe90a;" glyph-name="carrot" d="M349.008 633.010c41.652 25.192 57.776 31.572 75.576 36.61-6.452 46.54-2.87 90.3 13.998 134.704 10.98004C303AE3" />
<glyph unicode="&#xe90b;" glyph-name="chronometer" d="M791.526 629.436l44.068 46.488c11.128 11.746 10.634 30.29-1.104 41.416l-35.438 33.592c-11.744 11.13-0FCA774AF6" />
<glyph unicode="&#xe90c;" glyph-name="chronometer2" d="M517.652 609.002c-0.304 0-0.596-0.022-0.9-0.022v-259.798h257.018c0.018 1.208 0.092 2.398 0.092 3.60608D2308A29" />
<glyph unicode="&#xe90d;" glyph-name="cuttlery" d="M512 931.998c-267.306 0-484.002-216.692-484.002-484 0-267.302 216.696-483.996 484.002-483.996 267.300E7925CAD3" />
<glyph unicode="&#xe90e;" glyph-name="date" d="M812.878 854.166h-48.922v36.942c0 22.946-18.606 41.556-41.558 41.556h-15.104c-22.952 0-41.556-18.61-00FE499ADA" />
<glyph unicode="&#xe90f;" glyph-name="drugs" d="M788.55 399.030h-390.136c-28.782 0-52.106-23.33-52.106-52.104v-159.422c0-28.782 23.324-52.108 52.1060FCBE65AE5" />
<glyph unicode="&#xe910;" glyph-name="dumbbell" d="M138.724 691.978c-31.094 0-56.318-25.216-56.318-56.322v-113.346c-31.306-7.692-54.612-35.732-54.612-60047108AC9" />
<glyph unicode="&#xe911;" glyph-name="dumbbells" d="M902.692 330.852c-13.054 0-24.692-6.040-32.292-15.464v27.64c0 22.902-18.564 41.464-41.466 41.464-16.0DAE67CA4E" />
<glyph unicode="&#xe912;" glyph-name="dumbbells3" d="M830.57 334.748c-74.094 0-137.074-47.376-160.406-113.476h-316.324c-23.332 66.1-86.32 113.476-160.40601613F4A68" />
<glyph unicode="&#xe913;" glyph-name="email" d="M1015.275 588.422l-490.21 367.223c-7.745 5.808-18.384 5.808-26.129 0l-490.199-367.213c-5.488-4.117-80062264ABE" />
<glyph unicode="&#xe914;" glyph-name="file-apple" d="M697.048 516.866c-90.734 64.468-165.948-21.49-183.854-21.49-0.336 0-2.052 0-2.388 0-17.906 0-93.122 0BC44DDAB4" />
<glyph unicode="&#xe915;" glyph-name="medal" d="M983.162 751.416l-147.038 161.476c-7.792 8.554-18.976 13.164-30.464 12.626h-587.33c-11.504 0.534-22.0DB0C92AC6" />
<glyph unicode="&#xe916;" glyph-name="fitness-calculator" d="M599.544 603.61c4.128-4.128 8.946-7.39 14.454-9.782 5.51-2.39 11.45-3.586 17.83-3.586h15.212c6.23 0 099F0EDADD" />
<glyph unicode="&#xe917;" glyph-name="flexions" d="M967.77 182.354l-276.31 215.086c-28.958 23.83-70.878 23.284-99.204-1.292l-200.576-161.718c-4.772-2.200CD2A1A6E" />
<glyph unicode="&#xe918;" glyph-name="gloves" d="M261.192 829.586c-61.626-9.144-85.402-22.376-134.366-74.808-54.862-58.754-90.154-152.57-88.592-241.90C715DAA1C" />
<glyph unicode="&#xe919;" glyph-name="hanging" d="M692.8 917.492h-361.596c-8.028 0-14.536-6.508-14.536-14.536s6.508-14.536 14.536-14.536h149.226c-2.5203BE6A5A1D" />
<glyph unicode="&#xe91a;" glyph-name="apple-love" d="M519.25 592.836c42.086 16.282 275.848 225.794 124.020 318.266-138.762 84.514-177.836-217.632-155.68400B7E02AB0" />
<glyph unicode="&#xe91b;" glyph-name="heart" d="M956.502 403h-77.026c27.512 40.56 47.166 80.92 53.456 119.528 13.386 81.718 0.504 148.958-38.274 199024A9D4A07" />
<glyph unicode="&#xe91c;" glyph-name="heart-alarm" d="M614.86 511.142c-3.238 0.33-6.652 0.53-10.16 0.53-35.434 0-70.73-16.622-92.7-43.028-21.984 26.406-570ED7810AD2" />
<glyph unicode="&#xe91d;" glyph-name="doctor" d="M742.094 343.47c-54.444 19.844-90.23 38.126-112.364 60.468v-24.59c0-63.702-49.48-115.52-110.572-119.060D51CA9A" />
<glyph unicode="&#xe91e;" glyph-name="heart2" d="M943.488 760.238c-40.798 53.608-104.986 84.404-196.338 94.204-7.402 0.754-15.208 1.208-23.234 1.208-0FC7E30AF2" />
<glyph unicode="&#xe91f;" glyph-name="kickboxing" d="M222.208 620.696c-41.318-6.132-57.256-15.002-90.080-50.152-36.78-39.388-60.438-102.286-59.392-162.17024FAD4AC0" />
<glyph unicode="&#xe920;" glyph-name="wake-up" d="M582.44 744.324c41.214 0 74.614-33.404 74.614-74.616 0-41.208-33.398-74.618-74.614-74.618-41.21 0-740986A11AD2" />
<glyph unicode="&#xe921;" glyph-name="running" d="M405.284 704.59c47.502 0 86.006 38.504 86.006 85.998 0 47.492-38.504 85.996-86.006 85.996-47.49 0-85022E220A31" />
<glyph unicode="&#xe922;" glyph-name="drugs3" d="M424.52 419.954h-279.16c-20.594 0-37.284-16.692-37.284-37.278v-114.074c0-20.598 16.69-37.286 37.284-011291AA3B" />
<glyph unicode="&#xe923;" glyph-name="drugs4" d="M877.94 524.236c-0.766 27.19-14.194 51.206-34.624 66.336 0 0.002 0 0.004 0 0.006-22.094 20.756-45.9609F6DC2A2D" />
<glyph unicode="&#xe924;" glyph-name="capsule" d="M921.268 293.066c-33.774 36.31-79.53 58.41-128.838 62.232l-1.274 0.098-557.142 0.546c-108.564 0-196.026E9B8A0A" />
<glyph unicode="&#xe925;" glyph-name="meter" d="M997.366 600.418c0 64.298-42.988 123.368-121.046 166.328-73.376 40.382-172.324 62.624-278.614 62.6240BEB17EA2F" />
<glyph unicode="&#xe926;" glyph-name="musculous" d="M761.914 849.508c-30.954 36.112-204.67 123.252-299.25 25.23-94.58-98.020 5.904-167.272 42.024-183.940AD672EA79" />
<glyph unicode="&#xe927;" glyph-name="music-player" d="M942.68 280.71c-32.072 0-58.074-26.002-58.074-58.074 0-3.69 0.36-7.294 1.018-10.792-24.998-1.784-57.0F5B3D4A76" />
<glyph unicode="&#xe928;" glyph-name="musical" d="M984.438 833.54c0 26.542-21.516 48.056-48.056 48.056h-576.29c-26.542 0-48.056-21.516-48.056-48.056v-0EB0112AAA" />
<glyph unicode="&#xe929;" glyph-name="musical2" d="M789.952 683.678c-0.444 0.192-44.794 19.406-92.572 44.97-69.768 37.33-91.924 58.618-98.176 65.956v8402893C6A55" />
<glyph unicode="&#xe92a;" glyph-name="no-smoke" d="M777.534 431.342c0.57-0.522 1.296-0.79 2.030-0.79 0.546 0 1.094 0.148 1.584 0.452 1.144 0.71 1.672 20E276B1AB1" />
<glyph unicode="&#xe92b;" glyph-name="notes" d="M812.878 854.166h-48.922v36.942c0 22.946-18.606 41.556-41.558 41.556h-15.104c-22.952 0-41.556-18.6120A23AD5AFC" />
<glyph unicode="&#xe92c;" glyph-name="oxygenation" d="M924.886 376.592c-65.542 118.998-201.012 257.314-277.43 257.314-4.796 0-9.386-0.54-13.632-1.622-26.705C7D18A0B" />
<glyph unicode="&#xe92d;" glyph-name="pencil" d="M638.362 797.114c-6.74 6.742-17.67 6.742-24.412 0l-475.988-475.988c-6.74-6.74-6.742-17.67 0-24.41l220076526A76" />
<glyph unicode="&#xe92e;" glyph-name="phone-contact" d="M883.657 442.64h-52.225c0 170.437-138.619 309.024-308.962 309.024l-0.031 52.162c199.214 0.094 361.210E595E2A33" />
<glyph unicode="&#xe92f;" glyph-name="restaurant" d="M851.6 787.6c-90.71 90.71-211.318 140.666-339.602 140.666s-248.886-49.956-339.598-140.666c-90.71-90.0A29210A03" />
<glyph unicode="&#xe930;" glyph-name="resting" d="M919.32 107.808v-109.882h77.676v187.558h-892.316v318.278c0 10.11-3.79 19.266-11.368 27.472s-16.734 106A666BAFA" />
<glyph unicode="&#xe931;" glyph-name="runner" d="M327.296 722.374h301.022c7.91 0 14.322 6.412 14.322 14.322s-6.412 14.322-14.322 14.322h-301.022c-7.9069C8F3AE5" />
<glyph unicode="&#xe932;" glyph-name="sauce" d="M794.142 236.884c0 15.584-10.534 28.59-24.798 32.658 0 10.44 0 20.878 0 31.196 15.33 3.34 26.812 16.0D41C52AC6" />
<glyph unicode="&#xe933;" glyph-name="scale" d="M494.64 763.826c-3.302 0-5.982-2.678-5.982-5.98v-10.298c0-3.302 2.68-5.98 5.982-5.98s5.982 2.678 5.90D8F226A66" />
<glyph unicode="&#xe934;" glyph-name="scale2" d="M856.444 749.566h-98.308c-31.344 106.298-129.814 184.112-246.13 184.112s-214.786-77.812-246.128-184.009E80DA4E" />
<glyph unicode="&#xe935;" glyph-name="shopping-bag" d="M896.001 768.001h-191.999c-6.336 104.895-86.018 191.999-192.002 191.999s-185.665-87.104-191.999-191.999h-192.002l-64-832.001h896.001l-64 832.001zM512 895.744c70.785 0 121.855-58.239 127.999-127.745h-256.001c6.209 69.506 57.155 127.745 128.002 127.745zM191.999 703.999h639.999l64.256-703.68h-768.574l64.319 703.68zM351.999 639.999c-35.329 0-64-28.671-64-64s28.671-64 64-64 64 28.671 64 64-28.671 64-64 64zM672.001 639.999c-35.329 0-64-28.671-64-64s28.671-64 64-64 64 28.671 64 64-28.671 64-64 64z" />
<glyph unicode="&#xe936;" glyph-name="shopping-bag2" d="M858.64 707.267h-165.581v53.9c0 109.637-89.192 198.833-198.833 198.833s-198.829-89.196-198.829-198.804ED03BA71" />
<glyph unicode="&#xe937;" glyph-name="skating" d="M878.774 253.834h-19.116c40.376 17.654 71.926 51.436 71.926 91.88 0 59.816-26.488 84.994-51.318 99.40DE0FEBA53" />
<glyph unicode="&#xe938;" glyph-name="shoe" d="M994.182 351.32c-6.494 33.822-27.024 60.182-57.742 78.064-24.906 16.768-55.4 26.76-88.464 26.76-2.3 0C7E000A81" />
<glyph unicode="&#xe939;" glyph-name="standing" d="M499.25 666.398c48.098 0 87.094 38.992 87.094 87.086 0 48.098-38.996 87.082-87.094 87.082-48.102 0-804669E9ACB" />
<glyph unicode="&#xe93a;" glyph-name="star-medal" d="M983.162 751.418l-147.038 161.476c-7.79 8.55-18.972 13.152-30.454 12.626h-587.35c-11.5 0.528-22.66-40A55F99A53" />
<glyph unicode="&#xe93b;" glyph-name="steroids" d="M485.562 439.676h-323.582c-23.868 0-43.214-19.348-43.214-43.21v-132.222c0-23.876 19.348-43.222 43.210FC648CA09" />
<glyph unicode="&#xe93c;" glyph-name="sunrise" d="M234.19 515.046c17.226-17.188 44.924-17.438 62.126-0.214 17.060 17.040 17.186 44.648-0.3 62.126l-61.0B7F6F9AD8" />
<glyph unicode="&#xe93d;" glyph-name="swimming-pool" d="M293.772 270.534c19.33 0 35 15.67 35 35v83.038h232.84v-78.262c0-19.33 15.67-35 35-35s35 15.67 35 35v02D820BA07" />
<glyph unicode="&#xe93e;" glyph-name="thin" d="M960.16 621.814h-125.244l34.192 24.32c15.752 11.206 19.438 33.056 8.236 48.808-11.206 15.752-33.056 0BEEBAEAB9" />
<glyph unicode="&#xe93f;" glyph-name="thumbs-up" d="M940.219 346.25c1.782 31.832-11.632 63.898-34.134 81.664-29.728 22.46-67.422 24.458-100.721 26.118-505A4312A7A" />
<glyph unicode="&#xe940;" glyph-name="trophy" d="M965.354 802.844c-20.952 31.386-59.034 48.438-104.506 46.832-36.938-1.312-78.932-21.618-110.8-40.84800D20E3AB2" />
<glyph unicode="&#xe941;" glyph-name="truck38" d="M307.528 278.988c-47.674 0-86.326-38.652-86.326-86.328s38.652-86.324 86.326-86.324c47.676 0 86.326 302A0923A44" />
<glyph unicode="&#xe942;" glyph-name="two328" d="M543.77 553.090c0.178 3.226 0.272 6.456 0.272 9.668 0 110.482-101.948 203.82-222.624 203.82s-222.6260BC79BAA64" />
<glyph unicode="&#xe943;" glyph-name="water53" d="M734.682 552.786c0 26.43-10.388 49.126-25.098 58.566 14.708 9.446 25.098 32.14 25.098 58.57 0 34.86805486B2AFB" />
<glyph unicode="&#xe944;" glyph-name="weightlifter1" d="M515.262 764.132c0-92.186-74.732-166.918-166.918-166.918s-166.918 74.732-166.918 166.918c0 92.186 740596B94A06" />
<glyph unicode="&#xe945;" glyph-name="weightlifter2" d="M443.158 565.754c0-57.783-46.843-104.626-104.626-104.626s-104.626 46.843-104.626 104.626c0 57.783 460B253D7AF4" />
<glyph unicode="&#xe946;" glyph-name="weightlifter3" d="M612.558 669.166c0-55.537-45.021-100.558-100.558-100.558s-100.558 45.021-100.558 100.558c0 55.537 450C13649A62" />
<glyph unicode="&#xe947;" glyph-name="wine57" d="M684.016 789.458h-84.234c-2.626 0-4.754-2.128-4.754-4.756v-66.054c0-2.626 2.128-4.754 4.754-4.754h8409A3D17A1C" />
<glyph unicode="&#xe948;" glyph-name="yin6" d="M852.854 785.436c-89.088 90.14-207.852 140.666-334.41 142.272-0.15 0.002-0.3 0.002-0.454 0.002-0.39209D0989A51" />
<glyph unicode="&#xe949;" glyph-name="yoga13" d="M515.978 623.442c0.17 0 0.342 0.012 0.514 0.012 0.174 0 0.344-0.012 0.516-0.012 84.928 0 153.768 68.0D64F9EA61" />
</font>
</defs>
</svg>
